<?xml version="1.0" standalone="no"?>
<!DOCTYPE svg PUBLIC "-//W3C//DTD SVG 20010904//EN" "http://www.w3.org/TR/2001/REC-SVG-20010904/DTD/svg10.dtd">
<!-- Created using Krita: https://krita.org -->
<svg xmlns="http://www.w3.org/2000/svg" 
    xmlns:xlink="http://www.w3.org/1999/xlink"
    xmlns:krita="http://krita.org/namespaces/svg/krita"
    xmlns:sodipodi="http://sodipodi.sourceforge.net/DTD/sodipodi-0.dtd"
    width="460.8pt"
    height="259.2pt"
    viewBox="0 0 460.8 259.2">
<defs/>
<rect id="shape0" transform="matrix(0.999999858714929 0 0 0.999999858714929 460.559985792373 257.999963548451)" fill="#31363b" fill-rule="evenodd" stroke-opacity="0" stroke="#000000" stroke-width="0" stroke-linecap="square" stroke-linejoin="bevel" width="0.24" height="1.2"/><rect id="shape01" transform="matrix(0.99999981161991 0 0 0.99999981161991 460.079985871493 257.999963604965)" fill="#31363b" fill-rule="evenodd" stroke-opacity="0" stroke="#000000" stroke-width="0" stroke-linecap="square" stroke-linejoin="bevel" width="0.24" height="1.2"/><rect id="shape1" transform="matrix(0.999999858714929 0 0 0.999999858714929 459.599985928007 257.999963548451)" fill="#31363b" fill-rule="evenodd" stroke-opacity="0" stroke="#000000" stroke-width="0" stroke-linecap="square" stroke-linejoin="bevel" width="0.24" height="0.719999999999999"/><rect id="shape2" transform="matrix(0.999999858714929 0 0 0.999999858714929 459.839985894099 258.479963480635)" fill="#31363b" fill-rule="evenodd" stroke-opacity="0" stroke="#000000" stroke-width="0" stroke-linecap="square" stroke-linejoin="bevel" width="0.240000000000009" height="0.240000000000009"/><rect id="shape011" transform="matrix(0.99999981161991 0 0 0.99999981161991 459.119986007126 257.999963604965)" fill="#31363b" fill-rule="evenodd" stroke-opacity="0" stroke="#000000" stroke-width="0" stroke-linecap="square" stroke-linejoin="bevel" width="0.24" height="1.2"/><rect id="shape02" transform="matrix(0.999999764524893 0 0 0.999999764524893 458.639986086247 257.999963661479)" fill="#31363b" fill-rule="evenodd" stroke-opacity="0" stroke="#000000" stroke-width="0" stroke-linecap="square" stroke-linejoin="bevel" width="0.24" height="1.2"/><rect id="shape03" transform="matrix(0.99999985399669 0 0 0.99999985399669 458.879986030864 257.999963549583)" fill="#31363b" fill-rule="evenodd" stroke-opacity="0" stroke="#000000" stroke-width="0" stroke-linecap="square" stroke-linejoin="bevel" width="0.240000000000009" height="0.240000000000009"/><rect id="shape04" transform="matrix(0.999999864631848 0 0 0.999999864631848 458.879986028312 258.959963411398)" fill="#31363b" fill-rule="evenodd" stroke-opacity="0" stroke="#000000" stroke-width="0" stroke-linecap="square" stroke-linejoin="bevel" width="0.240000000000009" height="0.240000000000009"/><rect id="shape05" transform="matrix(0.99999981161991 0 0 0.99999981161991 458.15998614276 257.999963604965)" fill="#31363b" fill-rule="evenodd" stroke-opacity="0" stroke="#000000" stroke-width="0" stroke-linecap="square" stroke-linejoin="bevel" width="0.24" height="1.2"/><rect id="shape06" transform="matrix(0.999999864631848 0 0 0.999999864631848 457.919986165366 257.999963548451)" fill="#31363b" fill-rule="evenodd" stroke-opacity="0" stroke="#000000" stroke-width="0" stroke-linecap="square" stroke-linejoin="bevel" width="0.239999998579947" height="0.23999999857994"/><rect id="shape07" transform="matrix(0.999999764524893 0 0 0.999999764524893 457.199986289697 257.999963661479)" fill="#31363b" fill-rule="evenodd" stroke-opacity="0" stroke="#000000" stroke-width="0" stroke-linecap="square" stroke-linejoin="bevel" width="0.24" height="1.2"/><rect id="shape08" transform="matrix(0.99999981161991 0 0 0.99999981161991 456.719986368816 257.999963604965)" fill="#31363b" fill-rule="evenodd" stroke-opacity="0" stroke="#000000" stroke-width="0" stroke-linecap="square" stroke-linejoin="bevel" width="0.24" height="0.719999999999999"/><rect id="shape11" transform="matrix(0.99999981161991 0 0 0.99999981161991 456.959986323604 258.479963514543)" fill="#31363b" fill-rule="evenodd" stroke-opacity="0" stroke="#000000" stroke-width="0" stroke-linecap="square" stroke-linejoin="bevel" width="0.240000000000009" height="0.240000000000009"/><rect id="shape09" transform="matrix(0.999999856638769 0 0 0.999999856638769 455.759986470541 258.479963480635)" fill="#31363b" fill-rule="evenodd" stroke-opacity="0" stroke="#000000" stroke-width="0" stroke-linecap="square" stroke-linejoin="bevel" width="0.24000000049827" height="0.240000000498278"/><rect id="shape010" transform="matrix(0.99999985399669 0 0 0.99999985399669 455.27998653949 258.479963484032)" fill="#31363b" fill-rule="evenodd" stroke-opacity="0" stroke="#000000" stroke-width="0" stroke-linecap="square" stroke-linejoin="bevel" width="0.24" height="0.719999999999999"/><rect id="shape111" transform="matrix(0.999999784920372 0 0 0.999999784920372 455.279986556069 257.999963566162)" fill="#31363b" fill-rule="evenodd" stroke-opacity="0" stroke="#000000" stroke-width="0" stroke-linecap="square" stroke-linejoin="bevel" width="0.240000000000009" height="0.240000000000009"/><rect id="shape0111" transform="matrix(0.999999764524893 0 0 0.999999764524893 454.55998666269 257.999963661479)" fill="#31363b" fill-rule="evenodd" stroke-opacity="0" stroke="#000000" stroke-width="0" stroke-linecap="square" stroke-linejoin="bevel" width="0.24" height="1.2"/><rect id="shape12" transform="matrix(0.999999809038579 0 0 0.999999809038579 454.799986618098 258.95996342474)" fill="#31363b" fill-rule="evenodd" stroke-opacity="0" stroke="#000000" stroke-width="0" stroke-linecap="square" stroke-linejoin="bevel" width="0.240000000000009" height="0.240000000000009"/><rect id="shape13" transform="matrix(0.999999761943562 0 0 0.999999761943562 455.519986527675 258.959963436043)" fill="#31363b" fill-rule="evenodd" stroke-opacity="0" stroke="#000000" stroke-width="0" stroke-linecap="square" stroke-linejoin="bevel" width="0.240000000000009" height="0.240000000000009"/><rect id="shape14" transform="matrix(0.999999714848547 0 0 0.999999714848547 455.039986606795 258.479963515163)" fill="#31363b" fill-rule="evenodd" stroke-opacity="0" stroke="#000000" stroke-width="0" stroke-linecap="square" stroke-linejoin="bevel" width="0.240000000000009" height="0.240000000000009"/><rect id="shape15" transform="matrix(0.999999761943562 0 0 0.999999761943562 454.319986697217 257.999963571676)" fill="#31363b" fill-rule="evenodd" stroke-opacity="0" stroke="#000000" stroke-width="0" stroke-linecap="square" stroke-linejoin="bevel" width="0.240000000000009" height="0.240000000000009"/><rect id="shape012" transform="matrix(0.999999806901671 0 0 0.999999806901671 453.839986754244 258.479963517941)" fill="#31363b" fill-rule="evenodd" stroke-opacity="0" stroke="#000000" stroke-width="0" stroke-linecap="square" stroke-linejoin="bevel" width="0.24" height="0.719999999999999"/><rect id="shape16" transform="matrix(0.999999767314482 0 0 0.999999767314482 454.079986729836 258.959963434754)" fill="#31363b" fill-rule="evenodd" stroke-opacity="0" stroke="#000000" stroke-width="0" stroke-linecap="square" stroke-linejoin="bevel" width="0.240000000000009" height="0.240000000000009"/><rect id="shape17" transform="matrix(0.999999720219467 0 0 0.999999720219467 453.599986808957 258.959963446057)" fill="#31363b" fill-rule="evenodd" stroke-opacity="0" stroke="#000000" stroke-width="0" stroke-linecap="square" stroke-linejoin="bevel" width="0.240000000000009" height="0.240000000000009"/><rect id="shape18" transform="matrix(0.999999673124454 0 0 0.999999673124454 453.59998682026 258.479963525177)" fill="#31363b" fill-rule="evenodd" stroke-opacity="0" stroke="#000000" stroke-width="0" stroke-linecap="square" stroke-linejoin="bevel" width="0.240000000000009" height="0.240000000000009"/><rect id="shape013" transform="matrix(0.999999759806654 0 0 0.999999759806654 453.359986833364 258.479963551849)" fill="#31363b" fill-rule="evenodd" stroke-opacity="0" stroke="#000000" stroke-width="0" stroke-linecap="square" stroke-linejoin="bevel" width="0.24" height="0.719999999999999"/><rect id="shape19" transform="matrix(0.999999673124454 0 0 0.999999673124454 452.879986921983 258.95996345736)" fill="#31363b" fill-rule="evenodd" stroke-opacity="0" stroke="#000000" stroke-width="0" stroke-linecap="square" stroke-linejoin="bevel" width="0.240000000000009" height="0.240000000000009"/><rect id="shape1111" transform="matrix(0.999999626029444 0 0 0.999999626029444 452.879986933286 258.479963559085)" fill="#31363b" fill-rule="evenodd" stroke-opacity="0" stroke="#000000" stroke-width="0" stroke-linecap="square" stroke-linejoin="bevel" width="0.240000000000009" height="0.240000000000009"/><rect id="shape110" transform="matrix(0.999999809038579 0 0 0.999999809038579 452.639986923273 258.719963458648)" fill="#31363b" fill-rule="evenodd" stroke-opacity="0" stroke="#000000" stroke-width="0" stroke-linecap="square" stroke-linejoin="bevel" width="0.240000000000009" height="0.240000000000009"/><rect id="shape014" transform="matrix(0.999999717429878 0 0 0.999999717429878 452.399986979168 257.999963717993)" fill="#31363b" fill-rule="evenodd" stroke-opacity="0" stroke="#000000" stroke-width="0" stroke-linecap="square" stroke-linejoin="bevel" width="0.24" height="1.2"/><rect id="shape015" transform="matrix(0.999999806901671 0 0 0.999999806901671 451.91998702551 258.479963517941)" fill="#31363b" fill-rule="evenodd" stroke-opacity="0" stroke="#000000" stroke-width="0" stroke-linecap="square" stroke-linejoin="bevel" width="0.24" height="0.719999999999999"/><rect id="shape1111" transform="matrix(0.999999737825355 0 0 0.999999737825355 451.919987042089 257.999963622676)" fill="#31363b" fill-rule="evenodd" stroke-opacity="0" stroke="#000000" stroke-width="0" stroke-linecap="square" stroke-linejoin="bevel" width="0.240000000000009" height="0.240000000000009"/><rect id="shape016" transform="matrix(0.999999670334865 0 0 0.999999670334865 450.959987193921 257.999963774507)" fill="#31363b" fill-rule="evenodd" stroke-opacity="0" stroke="#000000" stroke-width="0" stroke-linecap="square" stroke-linejoin="bevel" width="0.24" height="1.2"/><rect id="shape017" transform="matrix(0.999999623239855 0 0 0.999999623239855 451.439987137407 257.999963831021)" fill="#31363b" fill-rule="evenodd" stroke-opacity="0" stroke="#000000" stroke-width="0" stroke-linecap="square" stroke-linejoin="bevel" width="0.24" height="1.2"/><rect id="shape112" transform="matrix(0.999999729726212 0 0 0.999999729726212 451.199987145759 258.479963511592)" fill="#31363b" fill-rule="evenodd" stroke-opacity="0" stroke="#000000" stroke-width="0" stroke-linecap="square" stroke-linejoin="bevel" width="0.240000000000009" height="0.240000000000009"/><rect id="shape018" transform="matrix(0.999999759806654 0 0 0.999999759806654 450.479987240264 258.479963551849)" fill="#31363b" fill-rule="evenodd" stroke-opacity="0" stroke="#000000" stroke-width="0" stroke-linecap="square" stroke-linejoin="bevel" width="0.24" height="0.719999999999999"/><rect id="shape113" transform="matrix(0.999999720219467 0 0 0.999999720219467 450.479987238462 258.239963547783)" fill="#31363b" fill-rule="evenodd" stroke-opacity="0" stroke="#000000" stroke-width="0" stroke-linecap="square" stroke-linejoin="bevel" width="0.240000000000009" height="0.240000000000009"/><rect id="shape11111" transform="matrix(0.999999673124454 0 0 0.999999673124454 450.23998730628 258.959963457359)" fill="#31363b" fill-rule="evenodd" stroke-opacity="0" stroke="#000000" stroke-width="0" stroke-linecap="square" stroke-linejoin="bevel" width="0.240000000000009" height="0.240000000000009"/><rect id="shape121" transform="matrix(0.999999626029444 0 0 0.999999626029444 450.239987317583 258.479963559085)" fill="#31363b" fill-rule="evenodd" stroke-opacity="0" stroke="#000000" stroke-width="0" stroke-linecap="square" stroke-linejoin="bevel" width="0.240000000000009" height="0.240000000000009"/><rect id="shape0111" transform="matrix(0.999999712711639 0 0 0.999999712711639 449.999987341991 258.479963585757)" fill="#31363b" fill-rule="evenodd" stroke-opacity="0" stroke="#000000" stroke-width="0" stroke-linecap="square" stroke-linejoin="bevel" width="0.24" height="0.719999999999999"/><rect id="shape019" transform="matrix(0.999999623239855 0 0 0.999999623239855 449.51998735216 258.239963514544)" fill="#31363b" fill-rule="evenodd" stroke-opacity="0" stroke="#000000" stroke-width="0" stroke-linecap="square" stroke-linejoin="bevel" width="0.240000056514039" height="0.720000169542118"/><rect id="shape114" transform="matrix(0.99999967771589 0 0 0.99999967771589 449.759987350389 258.959963456258)" fill="#31363b" fill-rule="evenodd" stroke-opacity="0" stroke="#000000" stroke-width="0" stroke-linecap="square" stroke-linejoin="bevel" width="0.240000000000009" height="0.240000000000009"/><rect id="shape020" transform="matrix(0.99999985399669 0 0 0.99999985399669 457.679986199274 257.999963551848)" fill="#31363b" fill-rule="evenodd" stroke-opacity="0" stroke="#000000" stroke-width="0" stroke-linecap="square" stroke-linejoin="bevel" width="0.24" height="0.719999999999999"/><rect id="shape021" transform="matrix(0.99999985192053 0 0 0.99999985192053 456.239986402725 258.479963481767)" fill="#31363b" fill-rule="evenodd" stroke-opacity="0" stroke="#000000" stroke-width="0" stroke-linecap="square" stroke-linejoin="bevel" width="0.24000000049827" height="0.240000000498278"/><rect id="shape022" transform="matrix(0.99999985192053 0 0 0.99999985192053 455.999986436634 258.479963481767)" fill="#31363b" fill-rule="evenodd" stroke-opacity="0" stroke="#000000" stroke-width="0" stroke-linecap="square" stroke-linejoin="bevel" width="0.24000000049827" height="0.240000000498278"/><rect id="shape023" transform="matrix(0.999999832571283 0 0 0.999999832571283 449.759987318252 257.999963554227)" fill="#31363b" fill-rule="evenodd" stroke-opacity="0" stroke="#000000" stroke-width="0" stroke-linecap="square" stroke-linejoin="bevel" width="0.24000000049827" height="0.240000000498278"/><rect id="shape01111" transform="matrix(0.999999827853044 0 0 0.999999827853044 450.239987238883 257.999963555359)" fill="#31363b" fill-rule="evenodd" stroke-opacity="0" stroke="#000000" stroke-width="0" stroke-linecap="square" stroke-linejoin="bevel" width="0.24000000049827" height="0.240000000498278"/><rect id="shape0211" transform="matrix(0.999999827853044 0 0 0.999999827853044 449.999987278568 257.999963555359)" fill="#31363b" fill-rule="evenodd" stroke-opacity="0" stroke="#000000" stroke-width="0" stroke-linecap="square" stroke-linejoin="bevel" width="0.24000000049827" height="0.240000000498278"/><rect id="shape01" transform="matrix(0.999999814260268 0 0 0.999999814260268 7.44003320456264 0.479999973020789)" fill="#31363b" fill-rule="evenodd" stroke-opacity="0" stroke="#000000" stroke-width="0" stroke-linecap="square" stroke-linejoin="bevel" width="0.24" height="0.719999999999999"/><rect id="shape11" transform="matrix(0.999999745183951 0 0 0.999999745183951 7.44003322114163 7.42251032261959e-08)" fill="#31363b" fill-rule="evenodd" stroke-opacity="0" stroke="#000000" stroke-width="0" stroke-linecap="square" stroke-linejoin="bevel" width="0.240000000000009" height="0.240000000000009"/><rect id="shape011" transform="matrix(0.999999724788474 0 0 0.999999724788474 6.24003340997321 1.69542067882774e-07)" fill="#31363b" fill-rule="evenodd" stroke-opacity="0" stroke="#000000" stroke-width="0" stroke-linecap="square" stroke-linejoin="bevel" width="0.24" height="1.2"/><rect id="shape111" transform="matrix(0.999999769302158 0 0 0.999999769302158 6.48003337783086 0.959999894655702)" fill="#31363b" fill-rule="evenodd" stroke-opacity="0" stroke="#000000" stroke-width="0" stroke-linecap="square" stroke-linejoin="bevel" width="0.240000000000009" height="0.240000000000009"/><rect id="shape121" transform="matrix(0.999999722207143 0 0 0.999999722207143 7.68003318321042 0.959999905958504)" fill="#31363b" fill-rule="evenodd" stroke-opacity="0" stroke="#000000" stroke-width="0" stroke-linecap="square" stroke-linejoin="bevel" width="0.240000000000009" height="0.240000000000009"/><rect id="shape131" transform="matrix(0.99999967511213 0 0 0.99999967511213 7.2000332814038 0.480000004151764)" fill="#31363b" fill-rule="evenodd" stroke-opacity="0" stroke="#000000" stroke-width="0" stroke-linecap="square" stroke-linejoin="bevel" width="0.240000000000009" height="0.240000000000009"/><rect id="shape141" transform="matrix(0.999999722207143 0 0 0.999999722207143 6.48003337783086 0.479999935715396)" fill="#31363b" fill-rule="evenodd" stroke-opacity="0" stroke="#000000" stroke-width="0" stroke-linecap="square" stroke-linejoin="bevel" width="0.240000034527942" height="0.240000034527839"/><rect id="shape021" transform="matrix(0.99999976716525 0 0 0.99999976716525 4.56003360106108 0.480000006929247)" fill="#31363b" fill-rule="evenodd" stroke-opacity="0" stroke="#000000" stroke-width="0" stroke-linecap="square" stroke-linejoin="bevel" width="0.24" height="0.719999999999999"/><rect id="shape151" transform="matrix(0.999999727578063 0 0 0.999999727578063 4.80003356711695 0.959999904668869)" fill="#31363b" fill-rule="evenodd" stroke-opacity="0" stroke="#000000" stroke-width="0" stroke-linecap="square" stroke-linejoin="bevel" width="0.240000000000009" height="0.240000000000009"/><rect id="shape161" transform="matrix(0.99999968048305 0 0 0.99999968048305 4.32003366531028 0.959999915971953)" fill="#31363b" fill-rule="evenodd" stroke-opacity="0" stroke="#000000" stroke-width="0" stroke-linecap="square" stroke-linejoin="bevel" width="0.240000000000009" height="0.240000000000009"/><rect id="shape171" transform="matrix(0.999999633388039 0 0 0.999999633388039 4.32003367661331 0.480000014165215)" fill="#31363b" fill-rule="evenodd" stroke-opacity="0" stroke="#000000" stroke-width="0" stroke-linecap="square" stroke-linejoin="bevel" width="0.240000000000009" height="0.240000000000009"/><rect id="shape031" transform="matrix(0.999999720070235 0 0 0.999999720070235 4.0800336992544 0.480000040837168)" fill="#31363b" fill-rule="evenodd" stroke-opacity="0" stroke="#000000" stroke-width="0" stroke-linecap="square" stroke-linejoin="bevel" width="0.24" height="0.719999999999999"/><rect id="shape1112" transform="matrix(0.999999586293031 0 0 0.999999586293031 1.20003408496264 0.480000002862599)" fill="#31363b" fill-rule="evenodd" stroke-opacity="0" stroke="#000000" stroke-width="0" stroke-linecap="square" stroke-linejoin="bevel" width="0.240000000000009" height="0.240000000000009"/><rect id="shape181" transform="matrix(0.999999769302158 0 0 0.999999769302158 8.40003312069203 0.239999991082765)" fill="#31363b" fill-rule="evenodd" stroke-opacity="0" stroke="#000000" stroke-width="0" stroke-linecap="square" stroke-linejoin="bevel" width="0.240000000000009" height="0.240000000000009"/><rect id="shape041" transform="matrix(0.999999677693461 0 0 0.999999677693461 0.480034181389705 2.26055503128448e-07)" fill="#31363b" fill-rule="evenodd" stroke-opacity="0" stroke="#000000" stroke-width="0" stroke-linecap="square" stroke-linejoin="bevel" width="0.24" height="1.2"/><rect id="shape0112" transform="matrix(0.999999774523846 0 0 0.999999774523846 6.72003334568851 0.480000001631059)" fill="#31363b" fill-rule="evenodd" stroke-opacity="0" stroke="#000000" stroke-width="0" stroke-linecap="square" stroke-linejoin="bevel" width="0.24" height="0.719999999999999"/><rect id="shape01112" transform="matrix(0.999999685052057 0 0 0.999999685052057 5.28003353854263 2.17225760263951e-07)" fill="#31363b" fill-rule="evenodd" stroke-opacity="0" stroke="#000000" stroke-width="0" stroke-linecap="square" stroke-linejoin="bevel" width="0.24" height="1.2"/><rect id="shape1121" transform="matrix(0.999999729565739 0 0 0.999999729565739 5.52003349686354 0.959999904192421)" fill="#31363b" fill-rule="evenodd" stroke-opacity="0" stroke="#000000" stroke-width="0" stroke-linecap="square" stroke-linejoin="bevel" width="0.240000000000009" height="0.240000000000009"/><rect id="shape141" transform="matrix(0.999999682470726 0 0 0.999999682470726 5.52003349686353 0.479999964325622)" fill="#31363b" fill-rule="evenodd" stroke-opacity="0" stroke="#000000" stroke-width="0" stroke-linecap="square" stroke-linejoin="bevel" width="0.240000034527942" height="0.240000034527839"/><rect id="shape0211" transform="matrix(0.999999734787427 0 0 0.999999734787427 5.76003345518444 0.48000003024127)" fill="#31363b" fill-rule="evenodd" stroke-opacity="0" stroke="#000000" stroke-width="0" stroke-linecap="square" stroke-linejoin="bevel" width="0.24" height="0.719999999999999"/><rect id="shape0121" transform="matrix(0.999999685052057 0 0 0.999999685052057 1.92003398853558 0.479999935715283)" fill="#31363b" fill-rule="evenodd" stroke-opacity="0" stroke="#000000" stroke-width="0" stroke-linecap="square" stroke-linejoin="bevel" width="0.240000043445166" height="0.720000130335499"/><rect id="shape1131" transform="matrix(0.999999729565739 0 0 0.999999729565739 2.16003394685649 0.959999904192421)" fill="#31363b" fill-rule="evenodd" stroke-opacity="0" stroke="#000000" stroke-width="0" stroke-linecap="square" stroke-linejoin="bevel" width="0.240000000000009" height="0.240000000000009"/><rect id="shape142" transform="matrix(0.999999682470726 0 0 0.999999682470726 2.16003394685649 0.479999964325622)" fill="#31363b" fill-rule="evenodd" stroke-opacity="0" stroke="#000000" stroke-width="0" stroke-linecap="square" stroke-linejoin="bevel" width="0.240000034527942" height="0.240000034527839"/><rect id="shape031" transform="matrix(0.999999734787427 0 0 0.999999734787427 2.40003390517738 -1.42108528119923e-14)" fill="#31363b" fill-rule="evenodd" stroke-opacity="0" stroke="#000000" stroke-width="0" stroke-linecap="square" stroke-linejoin="bevel" width="0.240000031508672" height="1.20000015754336"/><rect id="shape041" transform="matrix(0.999999637957045 0 0 0.999999637957045 3.42456744121285e-05 2.73739778154591e-07)" fill="#31363b" fill-rule="evenodd" stroke-opacity="0" stroke="#000000" stroke-width="0" stroke-linecap="square" stroke-linejoin="bevel" width="0.24" height="1.2"/><rect id="shape1141" transform="matrix(0.999999546556618 0 0 0.999999546556618 0.240034213532058 7.66840497208134e-08)" fill="#31363b" fill-rule="evenodd" stroke-opacity="0" stroke="#000000" stroke-width="0" stroke-linecap="square" stroke-linejoin="bevel" width="0.240000000000009" height="0.240000000000009"/><rect id="shape115" transform="matrix(0.999999546556618 0 0 0.999999546556618 0.240034213532058 0.480000012399346)" fill="#31363b" fill-rule="evenodd" stroke-opacity="0" stroke="#000000" stroke-width="0" stroke-linecap="square" stroke-linejoin="bevel" width="0.240000000000009" height="0.240000000000009"/><rect id="shape02111" transform="matrix(0.999999727428832 0 0 0.999999727428832 1.4400339998382 0.480000035539475)" fill="#31363b" fill-rule="evenodd" stroke-opacity="0" stroke="#000000" stroke-width="0" stroke-linecap="square" stroke-linejoin="bevel" width="0.24" height="0.719999999999999"/><rect id="shape0311" transform="matrix(0.999999680333818 0 0 0.999999680333818 0.960034117104997 0.480000069447379)" fill="#31363b" fill-rule="evenodd" stroke-opacity="0" stroke="#000000" stroke-width="0" stroke-linecap="square" stroke-linejoin="bevel" width="0.24" height="0.719999999999999"/><rect id="shape151" transform="matrix(0.999999687841646 0 0 0.999999687841646 3.6000337635391 0.240000010633288)" fill="#31363b" fill-rule="evenodd" stroke-opacity="0" stroke="#000000" stroke-width="0" stroke-linecap="square" stroke-linejoin="bevel" width="0.240000000000009" height="0.240000000000009"/><rect id="shape161" transform="matrix(0.999999640746634 0 0 0.999999640746634 3.12003382782381 0.47999998979373)" fill="#31363b" fill-rule="evenodd" stroke-opacity="0" stroke="#000000" stroke-width="0" stroke-linecap="square" stroke-linejoin="bevel" width="0.240000000000009" height="0.240000000000009"/><rect id="shape171" transform="matrix(0.999999593651625 0 0 0.999999593651625 3.12003383912683 1.07060458149088e-07)" fill="#31363b" fill-rule="evenodd" stroke-opacity="0" stroke="#000000" stroke-width="0" stroke-linecap="square" stroke-linejoin="bevel" width="0.240000000000009" height="0.240000000000009"/><rect id="shape0411" transform="matrix(0.999999774523846 0 0 0.999999774523846 8.40003306645649 0.480000001631044)" fill="#31363b" fill-rule="evenodd" stroke-opacity="0" stroke="#000000" stroke-width="0" stroke-linecap="square" stroke-linejoin="bevel" width="0.24" height="0.719999999999999"/><rect id="shape1211" transform="matrix(0.999999682470726 0 0 0.999999682470726 8.6400330355675 0.95999991549525)" fill="#31363b" fill-rule="evenodd" stroke-opacity="0" stroke="#000000" stroke-width="0" stroke-linecap="square" stroke-linejoin="bevel" width="0.240000000000009" height="0.240000000000009"/><rect id="shape131" transform="matrix(0.999999635375715 0 0 0.999999635375715 8.16003315283438 0.480000032761977)" fill="#31363b" fill-rule="evenodd" stroke-opacity="0" stroke="#000000" stroke-width="0" stroke-linecap="square" stroke-linejoin="bevel" width="0.240000000000009" height="0.240000000000009"/><rect id="shape132" transform="matrix(0.999999595639301 0 0 0.999999595639301 8.64003308854967 0.480000000619502)" fill="#31363b" fill-rule="evenodd" stroke-opacity="0" stroke="#000000" stroke-width="0" stroke-linecap="square" stroke-linejoin="bevel" width="0.240000000000009" height="0.240000000000009"/><rect id="shape051" transform="matrix(0.999999695051008 0 0 0.999999695051008 2.88003385996617 4.768370659203e-08)" fill="#31363b" fill-rule="evenodd" stroke-opacity="0" stroke="#000000" stroke-width="0" stroke-linecap="square" stroke-linejoin="bevel" width="0.240000031508672" height="1.20000015754336"/><rect id="shape162" transform="matrix(0.999999601010221 0 0 0.999999601010221 3.36003379568146 0.479999999330479)" fill="#31363b" fill-rule="evenodd" stroke-opacity="0" stroke="#000000" stroke-width="0" stroke-linecap="square" stroke-linejoin="bevel" width="0.240000000000009" height="0.240000000000009"/><rect id="shape172" transform="matrix(0.999999553915214 0 0 0.999999553915214 3.36003380698449 1.35670699157329e-07)" fill="#31363b" fill-rule="evenodd" stroke-opacity="0" stroke="#000000" stroke-width="0" stroke-linecap="square" stroke-linejoin="bevel" width="0.240000000000009" height="0.240000000000009"/><rect id="shape122" transform="matrix(0.999999682470726 0 0 0.999999682470726 3.6000337635391 0.95999991549525)" fill="#31363b" fill-rule="evenodd" stroke-opacity="0" stroke="#000000" stroke-width="0" stroke-linecap="square" stroke-linejoin="bevel" width="0.240000000000009" height="0.240000000000009"/><rect id="shape133" transform="matrix(0.999999635375715 0 0 0.999999635375715 3.36003379568146 0.720000000619618)" fill="#31363b" fill-rule="evenodd" stroke-opacity="0" stroke="#000000" stroke-width="0" stroke-linecap="square" stroke-linejoin="bevel" width="0.240000000000009" height="0.240000000000009"/><rect id="shape152" transform="matrix(0.99999971019338 0 0 0.99999971019338 3.6000337635391 0.479999973126518)" fill="#31363b" fill-rule="evenodd" stroke-opacity="0" stroke="#000000" stroke-width="0" stroke-linecap="square" stroke-linejoin="bevel" width="0.240000000000009" height="0.240000000000009"/><path id="shape02" transform="matrix(0.999999856923198 0 0 0.999999856923198 403.305895031979 190.798373398266)" sodipodi:type="arc" sodipodi:rx="30.72" sodipodi:ry="30.72" sodipodi:cx="24.8530020671984" sodipodi:cy="30.7215133851439" sodipodi:start="3.76991118430775" sodipodi:end="2.2165681500328" sodipodi:open="true" d="M6.36524 55.2556C16.3273 62.7626 29.8398 63.5003 40.5599 57.1225C51.2801 50.7447 57.0793 38.5177 55.2356 26.1808C53.3918 13.8439 44.2711 3.84675 32.1547 0.881885C20.0383 -2.08298 7.33197 2.57316 0 12.6648" fill="none" stroke="#31363b" stroke-width="3.84" stroke-linecap="round" stroke-linejoin="round"/><path id="shape3" transform="matrix(0.98487698550318 0 0 1.08519910903493 141.120010322584 142.799965553769)" fill="none" stroke="#31363b" stroke-width="5.76" stroke-linecap="round" stroke-linejoin="miter" stroke-miterlimit="1.91999995708466" d="M0 0L0 31.8467" sodipodi:nodetypes="cc"/><path id="shape4" transform="matrix(0.98487698550318 0 0 1.08519910903493 265.919989464366 142.799965553769)" fill="none" stroke="#31363b" stroke-width="5.76" stroke-linecap="round" stroke-linejoin="miter" stroke-miterlimit="1.91999995708466" d="M0 0L0 31.8467" sodipodi:nodetypes="cc"/><path id="shape5" transform="matrix(0.999999823334071 0 0 0.999999823334071 87.8399692274476 203.519971647268)" fill="none" stroke="#31363b" stroke-width="3.84" stroke-linecap="round" stroke-linejoin="round" d="M0.0001 0L0 10.56" sodipodi:nodetypes="cc"/><path id="shape9" transform="matrix(0.999999823334071 0 0 0.999999823334071 195.840001177058 203.519971647268)" fill="none" stroke="#31363b" stroke-width="3.84" stroke-linecap="round" stroke-linejoin="miter" stroke-miterlimit="1.91999995708466" d="M0 10.56L7.68 0" sodipodi:nodetypes="cc"/><path id="shape10" transform="matrix(0.999999823334071 0 0 0.999999823334071 203.519999893476 203.519971647268)" fill="none" stroke="#31363b" stroke-width="3.84" stroke-linecap="round" stroke-linejoin="miter" stroke-miterlimit="1.91999995708466" d="M0 0L7.68 10.56" sodipodi:nodetypes="cc"/><path id="shape51" transform="matrix(0.999999825636067 0 0 0.999999825636067 95.9999678636415 203.519971647268)" fill="none" stroke="#31363b" stroke-width="3.84" stroke-linecap="round" stroke-linejoin="round" d="M0.0001 0L0 10.56" sodipodi:nodetypes="cc"/><path id="shape52" transform="matrix(0.999999792951564 0 0 0.999999792951564 311.039931923328 203.519971647268)" fill="none" stroke="#31363b" stroke-width="3.84" stroke-linecap="round" stroke-linejoin="round" d="M0.0001 0L0 10.56" sodipodi:nodetypes="cc"/><path id="shape511" transform="matrix(0.99999979525356 0 0 0.99999979525356 319.19993055952 203.519971647268)" fill="none" stroke="#31363b" stroke-width="3.84" stroke-linecap="round" stroke-linejoin="round" d="M0.0001 0L0 10.56" sodipodi:nodetypes="cc"/><path id="shape03" transform="matrix(0.999999927907662 0 0 0.999999927907662 314.111024702085 5.2948741739107)" fill="none" stroke="#31363b" stroke-width="3.84" stroke-linecap="round" stroke-linejoin="bevel" d="M14.0276 100.815C7.1129 93.3748 3.10443 88.23 2.00214 85.3809C-1.82982 75.4765 0.448356 64.7655 3.7415 52.3993C8.00792 36.3783 19.8778 23.9263 36.5857 9.72408C43.7674 3.61931 48.1272 0.136817 59.2517 0.133511C63.7466 0.132176 75.0881 -0.492425 79.9955 0.971773C108.72 9.48843 105.656 28.6075 100.023 47.4527C96.9856 59.0303 87.1827 70.9994 81.0487 77.7729C74.9156 84.5454 58.1904 96.9097 52.8761 99.2315C49.4896 101.038 39.5204 101.632 22.9685 101.014" sodipodi:nodetypes="cssssccscc"/><path id="shape04" transform="matrix(0.99999993307801 0 0 0.99999993307801 7.92001663288273 5.22447686056488)" fill="none" stroke="#31363b" stroke-width="3.84" stroke-linecap="round" stroke-linejoin="miter" stroke-miterlimit="1.91999995708466" d="M4.57191 0C1.70884 7.12743 0.493719 8.8051 0.237784 17.4108C0.178314 24.6505 -0.797753 43.5439 1.69191 57.24C3.99938 72.7728 6.9477 85.5302 9.77363 92.2664C10.9152 95.7868 17.8497 109.571 25.0148 115.67C31.0336 120.116 34.9034 123.424 43.8946 128.271" sodipodi:nodetypes="cccccc"/><path id="shape12" transform="matrix(0.99999993307801 0 0 0.99999993307801 23.1224068972102 5.10052345554403)" fill="none" stroke="#31363b" stroke-width="3.84" stroke-linecap="round" stroke-linejoin="bevel" d="M0 0.0330713C4.98453 -0.147504 6.86304 0.279891 14.7376 4.67948C23.7583 10.3988 38.1623 24.0049 53.0776 40.1395C62.6698 53.9926 64.445 61.634 65.4976 64.4395C67.0357 67.4552 67.6989 77.372 67.7776 82.6795" sodipodi:nodetypes="ccccc"/><path id="shape05" transform="matrix(0.999999795418188 0 0 0.999999795418188 102.720024716041 55.6799886088845)" sodipodi:type="arc" sodipodi:rx="201.6" sodipodi:ry="201.6" sodipodi:cx="100.8" sodipodi:cy="201.6" sodipodi:start="4.18879020478639" sodipodi:end="5.23598775598299" sodipodi:open="true" d="M201.6 27.0093C139.225 -9.00309 62.3753 -9.00309 1.42109e-14 27.0093" fill="none" stroke="#31363b" stroke-width="3.84" stroke-linecap="round" stroke-linejoin="miter" stroke-miterlimit="1.91999995708466"/><path id="shape012" transform="matrix(0.999999795418188 0 0 0.999999795418188 346.072702017706 114.727249441679)" sodipodi:type="arc" sodipodi:rx="201.6" sodipodi:ry="201.6" sodipodi:cx="-142.552727087208" sodipodi:cy="142.552727087208" sodipodi:start="5.49778714378214" sodipodi:end="6.28318530717959" sodipodi:open="true" d="M59.0473 142.553C59.0473 89.0851 37.8073 37.8073 0 0" fill="none" stroke="#31363b" stroke-width="3.84" stroke-linecap="round" stroke-linejoin="miter" stroke-miterlimit="1.91999995708466"/><path id="shape022" transform="matrix(0.999999795418188 0 0 0.999999795418188 1.92004533788655 138.782464745464)" sodipodi:type="arc" sodipodi:rx="201.6" sodipodi:ry="201.6" sodipodi:cx="201.6" sodipodi:cy="118.497506862162" sodipodi:start="3.14159265358979" sodipodi:end="3.76991118430775" sodipodi:open="true" d="M38.5022 0C13.478 34.4429 -1.27132e-13 75.9238 0 118.498" fill="none" stroke="#31363b" stroke-width="3.84" stroke-linecap="round" stroke-linejoin="miter" stroke-miterlimit="1.91999995708466"/><path id="shape013" transform="matrix(0.999999897709089 0 0 0.999999897709089 2.2865342981344e-05 257.279973682595)" fill="none" stroke="#31363b" stroke-width="3.84" stroke-linecap="square" stroke-linejoin="miter" stroke-miterlimit="1.91999995708466" d="M0 1.13687e-13L405.08 0" sodipodi:nodetypes="cc"/>
</svg>
