<?xml version="1.0" standalone="no"?>
<!DOCTYPE svg PUBLIC "-//W3C//DTD SVG 20010904//EN" "http://www.w3.org/TR/2001/REC-SVG-20010904/DTD/svg10.dtd">
<!-- Created using Krita: https://krita.org -->
<svg xmlns="http://www.w3.org/2000/svg" 
    xmlns:xlink="http://www.w3.org/1999/xlink"
    xmlns:krita="http://krita.org/namespaces/svg/krita"
    xmlns:sodipodi="http://sodipodi.sourceforge.net/DTD/sodipodi-0.dtd"
    width="460.8pt"
    height="259.2pt"
    viewBox="0 0 460.8 259.2">
<defs/>
<path id="shape0211" transform="matrix(0.999999668543135 0 0 0.999999668543135 403.305886874011 190.798337455652)" sodipodi:type="arc" sodipodi:rx="30.72" sodipodi:ry="30.72" sodipodi:cx="24.8530020671984" sodipodi:cy="30.7215133851439" sodipodi:start="3.76991118430775" sodipodi:end="2.2165681500328" sodipodi:open="true" d="M6.36524 55.2556C16.3273 62.7626 29.8398 63.5003 40.5599 57.1225C51.2801 50.7447 57.0793 38.5177 55.2356 26.1808C53.3918 13.8439 44.2711 3.84675 32.1547 0.881885C20.0383 -2.08298 7.33197 2.57316 0 12.6648" fill="none" stroke="#31363b" stroke-width="3.84" stroke-linecap="round" stroke-linejoin="round"/><path id="shape3" transform="matrix(0.984876799971964 0 0 1.08519890460502 141.120051555216 142.799938653099)" fill="none" stroke="#31363b" stroke-width="5.76" stroke-linecap="round" stroke-linejoin="miter" stroke-miterlimit="1.91999995708466" d="M0 0L0 31.8467" sodipodi:nodetypes="cc"/><path id="shape4" transform="matrix(0.984876799971964 0 0 1.08519890460502 265.920007187167 142.799938653099)" fill="none" stroke="#31363b" stroke-width="5.76" stroke-linecap="round" stroke-linejoin="miter" stroke-miterlimit="1.91999995708466" d="M0 0L0 31.8467" sodipodi:nodetypes="cc"/><path id="shape5" transform="matrix(0.999999634954014 0 0 0.999999634954014 87.8400204969788 203.519933308158)" fill="none" stroke="#31363b" stroke-width="3.84" stroke-linecap="round" stroke-linejoin="round" d="M0.0001 0L0 10.56" sodipodi:nodetypes="cc"/><path id="shape9" transform="matrix(0.999999634954014 0 0 0.999999634954014 195.840032101533 203.519933308158)" fill="none" stroke="#31363b" stroke-width="3.84" stroke-linecap="round" stroke-linejoin="miter" stroke-miterlimit="1.91999995708466" d="M0 10.56L7.68 0" sodipodi:nodetypes="cc"/><path id="shape10" transform="matrix(0.999999634954014 0 0 0.999999634954014 203.520029371193 203.519933308158)" fill="none" stroke="#31363b" stroke-width="3.84" stroke-linecap="round" stroke-linejoin="miter" stroke-miterlimit="1.91999995708466" d="M0 0L7.68 10.56" sodipodi:nodetypes="cc"/><path id="shape51" transform="matrix(0.99999963725601 0 0 0.99999963725601 96.0000175959913 203.519933308158)" fill="none" stroke="#31363b" stroke-width="3.84" stroke-linecap="round" stroke-linejoin="round" d="M0.0001 0L0 10.56" sodipodi:nodetypes="cc"/><path id="shape52" transform="matrix(0.999999604571513 0 0 0.999999604571513 311.03994114643 203.519933308158)" fill="none" stroke="#31363b" stroke-width="3.84" stroke-linecap="round" stroke-linejoin="round" d="M0.0001 0L0 10.56" sodipodi:nodetypes="cc"/><path id="shape511" transform="matrix(0.999999606873508 0 0 0.999999606873508 319.19993824544 203.519933308158)" fill="none" stroke="#31363b" stroke-width="3.84" stroke-linecap="round" stroke-linejoin="round" d="M0.0001 0L0 10.56" sodipodi:nodetypes="cc"/><path id="shape0311" transform="matrix(0.999999739527586 0 0 0.999999739527586 314.111034864629 5.29487357794652)" fill="none" stroke="#31363b" stroke-width="3.84" stroke-linecap="round" stroke-linejoin="bevel" d="M14.0276 100.815C7.1129 93.3748 3.10443 88.23 2.00214 85.3809C-1.82982 75.4765 0.448356 64.7655 3.7415 52.3993C8.00792 36.3783 19.8778 23.9263 36.5857 9.72408C43.7674 3.61931 48.1272 0.136817 59.2517 0.133511C63.7466 0.132176 75.0881 -0.492425 79.9955 0.971773C108.72 9.48843 105.656 28.6075 100.023 47.4527C96.9856 59.0303 87.1827 70.9994 81.0487 77.7729C74.9156 84.5454 58.1904 96.9097 52.8761 99.2315C49.4896 101.038 39.5204 101.632 22.9685 101.014" sodipodi:nodetypes="cssssccscc"/><path id="shape0411" transform="matrix(0.999999744697932 0 0 0.999999744697932 7.92008256858563 5.22447587637746)" fill="none" stroke="#31363b" stroke-width="3.84" stroke-linecap="round" stroke-linejoin="miter" stroke-miterlimit="1.91999995708466" d="M4.57191 0C1.70884 7.12743 0.493719 8.8051 0.237784 17.4108C0.178314 24.6505 -0.797753 43.5439 1.69191 57.24C3.99938 72.7728 6.9477 85.5302 9.77363 92.2664C10.9152 95.7868 17.8497 109.571 25.0148 115.67C31.0336 120.116 34.9034 123.424 43.8946 128.271" sodipodi:nodetypes="cccccc"/><path id="shape1211" transform="matrix(0.999999744697932 0 0 0.999999744697932 23.1224703582415 5.10052243222486)" fill="none" stroke="#31363b" stroke-width="3.84" stroke-linecap="round" stroke-linejoin="bevel" d="M0 0.0330713C4.98453 -0.147504 6.86304 0.279891 14.7376 4.67948C23.7583 10.3988 38.1623 24.0049 53.0776 40.1395C62.6698 53.9926 64.445 61.634 65.4976 64.4395C67.0357 67.4552 67.6989 77.372 67.7776 82.6795" sodipodi:nodetypes="ccccc"/><path id="shape0511" transform="matrix(0.999999607038136 0 0 0.999999607038136 102.720073182466 55.6799781198832)" sodipodi:type="arc" sodipodi:rx="201.6" sodipodi:ry="201.6" sodipodi:cx="100.8" sodipodi:cy="201.6" sodipodi:start="4.18879020478639" sodipodi:end="5.23598775598299" sodipodi:open="true" d="M201.6 27.0093C139.225 -9.00309 62.3753 -9.00309 0 27.0093" fill="none" stroke="#31363b" stroke-width="3.84" stroke-linecap="round" stroke-linejoin="miter" stroke-miterlimit="1.91999995708466"/><path id="shape01211" transform="matrix(0.999999607038136 0 0 0.999999607038136 346.07270464133 114.727227829349)" sodipodi:type="arc" sodipodi:rx="201.6" sodipodi:ry="201.6" sodipodi:cx="-142.552727087208" sodipodi:cy="142.552727087208" sodipodi:start="5.49778714378214" sodipodi:end="6.28318530717959" sodipodi:open="true" d="M59.0473 142.553C59.0473 89.0851 37.8073 37.8073 0 0" fill="none" stroke="#31363b" stroke-width="3.84" stroke-linecap="round" stroke-linejoin="miter" stroke-miterlimit="1.91999995708466"/><path id="shape0221" transform="matrix(0.999999607038136 0 0 0.999999607038136 1.92011279302063 138.782438601611)" sodipodi:type="arc" sodipodi:rx="201.6" sodipodi:ry="201.6" sodipodi:cx="201.6" sodipodi:cy="118.497506862162" sodipodi:start="3.14159265358979" sodipodi:end="3.76991118430775" sodipodi:open="true" d="M38.5022 0C13.478 34.4429 -1.27132e-13 75.9238 0 118.498" fill="none" stroke="#31363b" stroke-width="3.84" stroke-linecap="round" stroke-linejoin="miter" stroke-miterlimit="1.91999995708466"/><path id="shape0131" transform="matrix(0.999999709329018 0 0 0.999999709329018 9.06821710646689e-05 257.279925216171)" fill="none" stroke="#31363b" stroke-width="3.84" stroke-linecap="square" stroke-linejoin="miter" stroke-miterlimit="1.91999995708466" d="M0 1.13687e-13L405.08 0" sodipodi:nodetypes="cc"/>
</svg>
